<svg width="103" height="26" viewBox="0 0 103 26" fill="none" xmlns="http://www.w3.org/2000/svg">
<path fill-rule="evenodd" clip-rule="evenodd" d="M20.7676 0C21.0549 0 21.5336 24.3173 21.5336 24.3173C21.5336 24.3173 21.8509 0.796015 21.8509 1.08333V24.9167C21.8509 25.204 41.7368 25.4795 41.5336 25.6827C41.3304 25.8859 21.0549 26 20.7676 26C20.4803 26 20.2047 25.8859 20.0015 25.6827C19.7984 25.4795 19.6842 25.204 19.6842 24.9167V1.08333C19.6842 0.796015 -0.201618 0.520465 0.00154619 0.317301C0.204711 0.114136 20.4803 0 20.7676 0ZM16.4342 4.33333C16.7216 4.33333 16.9971 19.4475 17.2003 19.6506C17.4034 19.8538 17.5176 5.12935 17.5176 5.41667V20.5833C17.5176 20.8707 17.4034 21.1462 17.2003 21.3494C16.9971 21.5525 16.7216 21.6667 16.4342 21.6667C16.1469 21.6667 15.8714 21.5525 15.6682 21.3494C15.4651 21.1462 15.3509 20.8707 15.3509 20.5833V5.41667C15.3509 5.12935 15.4651 4.8538 15.6682 4.65063C15.8714 4.44747 16.1469 4.33333 16.4342 4.33333ZM25.1009 4.33333C25.3882 4.33333 25.6638 19.4475 25.8669 19.6506C26.0701 19.8538 26.1842 5.12935 26.1842 5.41667V20.5833C26.1842 20.8707 26.0701 21.1462 25.8669 21.3494C25.6638 21.5525 25.3882 21.6667 25.1009 21.6667C24.8136 21.6667 24.538 21.5525 24.3349 21.3494C24.1317 21.1462 24.0176 20.8707 24.0176 20.5833V5.41667C24.0176 5.12935 24.1317 4.8538 24.3349 4.65063C24.538 4.44747 24.8136 4.33333 25.1009 4.33333ZM12.1009 7.58333C12.3882 7.58333 12.6638 16.6975 12.8669 16.9006C13.0701 17.1038 13.1842 8.37935 13.1842 8.66667V17.3333C13.1842 17.6207 13.0701 17.8962 12.8669 18.0994C12.6638 18.3025 12.3882 18.4167 12.1009 18.4167C11.8136 18.4167 11.538 18.3025 11.3349 18.0994C11.1317 17.8962 11.0176 17.6207 11.0176 17.3333V8.66667C11.0176 8.37935 11.1317 8.1038 11.3349 7.90064C11.538 7.69747 11.8136 7.58333 12.1009 7.58333ZM29.4342 7.58333C29.7216 7.58333 29.9971 16.6975 30.2003 16.9006C30.4034 17.1038 30.5176 8.37935 30.5176 8.66667V17.3333C30.5176 17.6207 30.4034 17.8962 30.2003 18.0994C29.9971 18.3025 29.7216 18.4167 29.4342 18.4167C29.1469 18.4167 28.8714 18.3025 28.6682 18.0994C28.465 17.8962 28.3509 17.6207 28.3509 17.3333V8.66667C28.3509 8.37935 28.465 8.1038 28.6682 7.90064C28.8714 7.69747 29.1469 7.58333 29.4342 7.58333ZM7.76758 9.75C8.0549 9.75 8.33045 14.8641 8.53361 15.0673C8.73678 15.2705 8.85091 10.546 8.85091 10.8333V15.1667C8.85091 15.454 8.73678 15.7295 8.53361 15.9327C8.33045 16.1359 8.0549 16.25 7.76758 16.25C7.48026 16.25 7.20471 16.1359 7.00155 15.9327C6.79838 15.7295 6.68425 15.454 6.68425 15.1667V10.8333C6.68425 10.546 6.79838 10.2705 7.00155 10.0673C7.20471 9.86414 7.48026 9.75 7.76758 9.75ZM33.7676 9.75C34.0549 9.75 34.3304 14.8641 34.5336 15.0673C34.7368 15.2705 34.8509 10.546 34.8509 10.8333V15.1667C34.8509 15.454 34.7368 15.7295 34.5336 15.9327C34.3304 16.1359 34.0549 16.25 33.7676 16.25C33.4803 16.25 33.2047 16.1359 33.0015 15.9327C32.7984 15.7295 32.6842 15.454 32.6842 15.1667V10.8333C32.6842 10.546 32.7984 10.2705 33.0015 10.0673C33.2047 9.86414 33.4803 9.75 33.7676 9.75Z" fill="white"/>
<path d="M57.02 11.564C56.78 12.476 56.522 13.382 56.246 14.282C55.982 15.182 55.7 16.088 55.4 17H53.312C53.096 16.496 52.862 15.896 52.61 15.2C52.358 14.504 52.094 13.748 51.818 12.932C51.554 12.104 51.278 11.234 50.99 10.322C50.714 9.398 50.444 8.468 50.18 7.532H53.006C53.102 7.964 53.204 8.438 53.312 8.954C53.432 9.458 53.552 9.98 53.672 10.52C53.804 11.06 53.936 11.606 54.068 12.158C54.212 12.698 54.356 13.22 54.5 13.724C54.656 13.196 54.806 12.656 54.95 12.104C55.106 11.552 55.25 11.012 55.382 10.484C55.526 9.944 55.658 9.428 55.778 8.936C55.91 8.432 56.024 7.964 56.12 7.532H58.064C58.16 7.964 58.268 8.432 58.388 8.936C58.508 9.428 58.634 9.944 58.766 10.484C58.898 11.012 59.036 11.552 59.18 12.104C59.324 12.656 59.474 13.196 59.63 13.724C59.774 13.22 59.918 12.698 60.062 12.158C60.206 11.606 60.338 11.06 60.458 10.52C60.59 9.98 60.71 9.458 60.818 8.954C60.938 8.438 61.046 7.964 61.142 7.532H63.932C63.668 8.468 63.392 9.398 63.104 10.322C62.828 11.234 62.552 12.104 62.276 12.932C62.012 13.748 61.748 14.504 61.484 15.2C61.232 15.896 60.998 16.496 60.782 17H58.694C58.394 16.088 58.1 15.182 57.812 14.282C57.524 13.382 57.26 12.476 57.02 11.564ZM68.8175 15.128C69.0815 15.128 69.3335 15.122 69.5735 15.11C69.8135 15.098 70.0055 15.08 70.1495 15.056V13.022C70.0415 12.998 69.8795 12.974 69.6635 12.95C69.4475 12.926 69.2495 12.914 69.0695 12.914C68.8175 12.914 68.5775 12.932 68.3495 12.968C68.1335 12.992 67.9415 13.046 67.7735 13.13C67.6055 13.214 67.4735 13.328 67.3775 13.472C67.2815 13.616 67.2335 13.796 67.2335 14.012C67.2335 14.432 67.3715 14.726 67.6475 14.894C67.9355 15.05 68.3255 15.128 68.8175 15.128ZM68.6015 7.28C69.3935 7.28 70.0535 7.37 70.5815 7.55C71.1095 7.73 71.5295 7.988 71.8415 8.324C72.1655 8.66 72.3935 9.068 72.5255 9.548C72.6575 10.028 72.7235 10.562 72.7235 11.15V16.73C72.3395 16.814 71.8055 16.91 71.1215 17.018C70.4375 17.138 69.6095 17.198 68.6375 17.198C68.0255 17.198 67.4675 17.144 66.9635 17.036C66.4715 16.928 66.0455 16.754 65.6855 16.514C65.3255 16.262 65.0495 15.938 64.8575 15.542C64.6655 15.146 64.5695 14.66 64.5695 14.084C64.5695 13.532 64.6775 13.064 64.8935 12.68C65.1215 12.296 65.4215 11.99 65.7935 11.762C66.1655 11.534 66.5915 11.372 67.0715 11.276C67.5515 11.168 68.0495 11.114 68.5655 11.114C68.9135 11.114 69.2195 11.132 69.4835 11.168C69.7595 11.192 69.9815 11.228 70.1495 11.276V11.024C70.1495 10.568 70.0115 10.202 69.7355 9.926C69.4595 9.65 68.9795 9.512 68.2955 9.512C67.8395 9.512 67.3895 9.548 66.9455 9.62C66.5015 9.68 66.1175 9.77 65.7935 9.89L65.4515 7.73C65.6075 7.682 65.7995 7.634 66.0275 7.586C66.2675 7.526 66.5255 7.478 66.8015 7.442C67.0775 7.394 67.3655 7.358 67.6655 7.334C67.9775 7.298 68.2895 7.28 68.6015 7.28ZM77.4942 17C76.8822 15.8 76.2582 14.396 75.6222 12.788C74.9982 11.18 74.4042 9.428 73.8402 7.532H76.6842C76.8042 8 76.9422 8.51 77.0982 9.062C77.2662 9.602 77.4342 10.154 77.6022 10.718C77.7822 11.27 77.9562 11.81 78.1242 12.338C78.3042 12.866 78.4782 13.346 78.6462 13.778C78.8022 13.346 78.9702 12.866 79.1502 12.338C79.3302 11.81 79.5042 11.27 79.6722 10.718C79.8522 10.154 80.0202 9.602 80.1762 9.062C80.3442 8.51 80.4882 8 80.6082 7.532H83.3802C82.8162 9.428 82.2162 11.18 81.5802 12.788C80.9562 14.396 80.3382 15.8 79.7262 17H77.4942ZM84.1205 12.338C84.1205 11.498 84.2465 10.766 84.4985 10.142C84.7625 9.506 85.1045 8.978 85.5245 8.558C85.9445 8.138 86.4245 7.82 86.9645 7.604C87.5165 7.388 88.0805 7.28 88.6565 7.28C90.0005 7.28 91.0625 7.694 91.8425 8.522C92.6225 9.338 93.0125 10.544 93.0125 12.14C93.0125 12.296 93.0065 12.47 92.9945 12.662C92.9825 12.842 92.9705 13.004 92.9585 13.148H86.8745C86.9345 13.7 87.1925 14.138 87.6485 14.462C88.1045 14.786 88.7165 14.948 89.4845 14.948C89.9765 14.948 90.4565 14.906 90.9245 14.822C91.4045 14.726 91.7945 14.612 92.0945 14.48L92.4545 16.658C92.3105 16.73 92.1185 16.802 91.8785 16.874C91.6385 16.946 91.3685 17.006 91.0685 17.054C90.7805 17.114 90.4685 17.162 90.1325 17.198C89.7965 17.234 89.4605 17.252 89.1245 17.252C88.2725 17.252 87.5285 17.126 86.8925 16.874C86.2685 16.622 85.7465 16.28 85.3265 15.848C84.9185 15.404 84.6125 14.882 84.4085 14.282C84.2165 13.682 84.1205 13.034 84.1205 12.338ZM90.4205 11.312C90.4085 11.084 90.3665 10.862 90.2945 10.646C90.2345 10.43 90.1325 10.238 89.9885 10.07C89.8565 9.902 89.6825 9.764 89.4665 9.656C89.2625 9.548 89.0045 9.494 88.6925 9.494C88.3925 9.494 88.1345 9.548 87.9185 9.656C87.7025 9.752 87.5225 9.884 87.3785 10.052C87.2345 10.22 87.1205 10.418 87.0365 10.646C86.9645 10.862 86.9105 11.084 86.8745 11.312H90.4205ZM97.8003 15.074C98.2923 15.074 98.6403 15.026 98.8443 14.93C99.0483 14.834 99.1503 14.648 99.1503 14.372C99.1503 14.156 99.0183 13.97 98.7543 13.814C98.4903 13.646 98.0883 13.46 97.5483 13.256C97.1283 13.1 96.7443 12.938 96.3963 12.77C96.0603 12.602 95.7723 12.404 95.5323 12.176C95.2923 11.936 95.1063 11.654 94.9743 11.33C94.8423 11.006 94.7763 10.616 94.7763 10.16C94.7763 9.272 95.1063 8.57 95.7663 8.054C96.4263 7.538 97.3323 7.28 98.4843 7.28C99.0603 7.28 99.6123 7.334 100.14 7.442C100.668 7.538 101.088 7.646 101.4 7.766L100.932 9.854C100.62 9.746 100.278 9.65 99.9063 9.566C99.5463 9.482 99.1383 9.44 98.6823 9.44C97.8423 9.44 97.4223 9.674 97.4223 10.142C97.4223 10.25 97.4403 10.346 97.4763 10.43C97.5123 10.514 97.5843 10.598 97.6923 10.682C97.8003 10.754 97.9443 10.838 98.1243 10.934C98.3163 11.018 98.5563 11.114 98.8443 11.222C99.4323 11.438 99.9183 11.654 100.302 11.87C100.686 12.074 100.986 12.302 101.202 12.554C101.43 12.794 101.586 13.064 101.67 13.364C101.766 13.664 101.814 14.012 101.814 14.408C101.814 15.344 101.46 16.052 100.752 16.532C100.056 17.012 99.0663 17.252 97.7823 17.252C96.9423 17.252 96.2403 17.18 95.6763 17.036C95.1243 16.892 94.7403 16.772 94.5243 16.676L94.9743 14.498C95.4303 14.678 95.8983 14.822 96.3783 14.93C96.8583 15.026 97.3323 15.074 97.8003 15.074Z" fill="white"/>
</svg>
